<svg width="30" height="30" viewBox="0 0 30 30" fill="none" xmlns="http://www.w3.org/2000/svg">
<g filter="url(#filter0_d_170_27760)">
<path d="M4 20.5C4 19.6716 4.61991 19 5.38462 19H14.6154C15.3801 19 16 19.6716 16 20.5C16 21.3284 15.3801 22 14.6154 22H5.38462C4.61991 22 4 21.3284 4 20.5Z" fill="white"/>
<path d="M14 3.5C14 2.67157 14.6199 2 15.3846 2H24.6154C25.3801 2 26 2.67157 26 3.5C26 4.32843 25.3801 5 24.6154 5H15.3846C14.6199 5 14 4.32843 14 3.5Z" fill="white"/>
<path d="M4.09849 12.4173C4.10234 11.6642 4.71598 11.0568 5.46909 11.0607L24.3961 11.1576C25.1492 11.1615 25.7566 11.7751 25.7527 12.5282C25.7489 13.2813 25.1352 13.8887 24.3821 13.8849L5.45512 13.7879C4.70201 13.7841 4.09463 13.1704 4.09849 12.4173Z" fill="white"/>
</g>
<defs>
<filter id="filter0_d_170_27760" x="0" y="2" width="30" height="28" filterUnits="userSpaceOnUse" color-interpolation-filters="sRGB">
<feFlood flood-opacity="0" result="BackgroundImageFix"/>
<feColorMatrix in="SourceAlpha" type="matrix" values="0 0 0 0 0 0 0 0 0 0 0 0 0 0 0 0 0 0 127 0" result="hardAlpha"/>
<feOffset dy="4"/>
<feGaussianBlur stdDeviation="2"/>
<feComposite in2="hardAlpha" operator="out"/>
<feColorMatrix type="matrix" values="0 0 0 0 0 0 0 0 0 0 0 0 0 0 0 0 0 0 0.25 0"/>
<feBlend mode="normal" in2="BackgroundImageFix" result="effect1_dropShadow_170_27760"/>
<feBlend mode="normal" in="SourceGraphic" in2="effect1_dropShadow_170_27760" result="shape"/>
</filter>
</defs>
</svg>
