<svg width="30" height="30" viewBox="0 0 30 30" fill="none" xmlns="http://www.w3.org/2000/svg">
<rect width="30" height="30" fill="#303A46"/>
<g clip-path="url(#clip0_974_11170)">
<path d="M11.4111 20.5376C12.0745 21.3854 12.6782 22.2783 13.2181 23.21C13.6789 24.0863 13.8711 24.6804 14.2079 25.7362C14.4144 26.3196 14.6011 26.4937 15.0025 26.4937C15.4399 26.4937 15.6383 26.1975 15.7916 25.7394C16.11 24.7424 16.3598 23.9814 16.7539 23.2624C17.5273 21.8742 18.4883 20.6407 19.4326 19.4552C19.6882 19.1196 21.3409 17.1649 22.085 15.6225C22.085 15.6225 22.9995 13.9282 22.9995 11.562C22.9995 9.34859 22.0976 7.81348 22.0976 7.81348L19.5011 8.51075L17.9242 12.6753L17.5341 13.2495L17.4561 13.3535L17.3523 13.4838L17.1702 13.6918L16.9099 13.9527L15.5058 15.0998L11.9951 17.1323L11.4111 20.5376Z" fill="#34A853"/>
<path d="M7.78809 15.3381C8.6449 17.3005 10.2971 19.0256 11.415 20.5394L17.3526 13.4869C17.3526 13.4869 16.5161 14.5839 14.9987 14.5839C13.3085 14.5839 11.9431 13.2305 11.9431 11.524C11.9431 10.3537 12.6452 9.5498 12.6452 9.5498L8.61465 10.6327L7.78809 15.3381Z" fill="#FBBC04"/>
<path d="M17.4189 3.8623C19.3909 4.49985 21.0788 5.8383 22.0997 7.81197L17.3544 13.4823C17.3544 13.4823 18.0565 12.6638 18.0565 11.5008C18.0565 9.75457 16.5901 8.45002 15.0059 8.45002C13.5078 8.45002 12.6475 9.54518 12.6475 9.54518V5.97298L17.4189 3.8623Z" fill="#4285F4"/>
<path d="M8.87598 6.36811C10.0538 4.95508 12.1263 3.5 14.9835 3.5C16.3698 3.5 17.4142 3.86493 17.4142 3.86493L12.6432 9.54869H9.26285L8.87598 6.36811Z" fill="#1A73E8"/>
<path d="M7.78825 15.338C7.78825 15.338 7 13.7901 7 11.5478C7 9.42848 7.82162 7.57595 8.87594 6.36816L12.6458 9.54925L7.78825 15.338Z" fill="#EA4335"/>
</g>
<defs>
<clipPath id="clip0_974_11170">
<rect width="16" height="23" fill="white" transform="translate(7 3.5)"/>
</clipPath>
</defs>
</svg>
