<svg width="24" height="24" viewBox="0 0 24 24" fill="none" xmlns="http://www.w3.org/2000/svg">
<rect x="0.5" y="0.5" width="23" height="23" rx="11.5" fill="url(#paint0_linear_717_5282)"/>
<rect x="0.5" y="0.5" width="23" height="23" rx="11.5" stroke="url(#paint1_linear_717_5282)"/>
<path d="M18 14.9467V17.304C18.0001 17.4728 17.9361 17.6353 17.8211 17.7588C17.706 17.8823 17.5484 17.9575 17.38 17.9693C17.0889 17.9898 16.8511 18 16.6667 18C10.7753 18 6 13.2247 6 7.33333C6 7.14933 6.01022 6.91156 6.03067 6.62C6.04248 6.45163 6.11772 6.29401 6.2412 6.17894C6.36468 6.06387 6.52722 5.99992 6.696 6H9.05333C9.13603 5.99992 9.2158 6.03057 9.27715 6.08601C9.33851 6.14145 9.37706 6.21772 9.38533 6.3C9.40044 6.45289 9.41467 6.57556 9.428 6.668C9.56048 7.59262 9.83199 8.49189 10.2333 9.33533C10.2967 9.46867 10.2553 9.628 10.1353 9.71333L8.69667 10.7413C9.57647 12.7909 11.2098 14.4242 13.2593 15.304L14.286 13.868C14.3278 13.8091 14.389 13.7669 14.4589 13.7487C14.5288 13.7305 14.6028 13.7376 14.668 13.7687C15.5113 14.1693 16.4104 14.4401 17.3347 14.572C17.4271 14.5853 17.5493 14.5996 17.7013 14.6147C17.7835 14.6231 17.8596 14.6617 17.9149 14.7231C17.9702 14.7844 18.0001 14.8641 18 14.9467Z" fill="white"/>
<defs>
<linearGradient id="paint0_linear_717_5282" x1="12" y1="0" x2="12" y2="24" gradientUnits="userSpaceOnUse">
<stop stop-color="#1A7D68"/>
<stop offset="1" stop-color="#5BC9B1"/>
</linearGradient>
<linearGradient id="paint1_linear_717_5282" x1="12" y1="0" x2="12" y2="24" gradientUnits="userSpaceOnUse">
<stop stop-color="#11A988"/>
<stop offset="1" stop-color="#70C2A0"/>
</linearGradient>
</defs>
</svg>
