<svg width="24" height="24" viewBox="0 0 24 24" fill="none" xmlns="http://www.w3.org/2000/svg">
<rect x="0.5" y="0.5" width="23" height="23" rx="11.5" fill="#FF1010"/>
<rect x="0.5" y="0.5" width="23" height="23" rx="11.5" stroke="#FF1010"/>
<mask id="mask0_717_5282" style="mask-type:luminance" maskUnits="userSpaceOnUse" x="4" y="6" width="16" height="12">
<path d="M18.5 14.8183V9.18171C18.5 8.75582 18.2172 8.38136 17.7996 8.27786C16.6699 7.99757 14.3351 7.5 12 7.5C9.66487 7.5 7.33008 7.99757 6.20038 8.27786C5.78275 8.38168 5.5 8.75582 5.5 9.18171V14.8183C5.5 15.2442 5.78275 15.6186 6.20038 15.7221C7.33008 16.0024 9.66487 16.5 12 16.5C14.3351 16.5 16.6699 16.0024 17.7996 15.7221C18.2172 15.6183 18.5 15.2442 18.5 14.8183Z" fill="white" stroke="white" stroke-width="2"/>
<path d="M11.5379 13.8951C11.4892 13.9289 11.432 13.9488 11.3727 13.9527C11.3133 13.9565 11.254 13.9442 11.2012 13.917C11.1484 13.8898 11.1042 13.8488 11.0734 13.7985C11.0426 13.7481 11.0263 13.6904 11.0264 13.6316V10.3665C11.0263 10.3077 11.0426 10.25 11.0734 10.1997C11.1042 10.1495 11.1484 10.1085 11.2011 10.0813C11.2538 10.0541 11.3131 10.0418 11.3724 10.0456C11.4317 10.0494 11.4889 10.0692 11.5376 10.1029L13.8961 11.7358C13.9389 11.7654 13.9738 11.8048 13.9979 11.8506C14.022 11.8965 14.0346 11.9474 14.0346 11.999C14.0346 12.0507 14.022 12.1016 13.9979 12.1474C13.9738 12.1932 13.9389 12.2326 13.8961 12.2623L11.5379 13.8951Z" fill="black" stroke="black" stroke-width="2" stroke-linejoin="round"/>
</mask>
<g mask="url(#mask0_717_5282)">
<path d="M4.19922 4.28711H19.7992V19.7157H4.19922V4.28711Z" fill="#F3F3F3"/>
</g>
</svg>
